<svg xmlns="http://www.w3.org/2000/svg" version="1.1" xmlns:xlink="http://www.w3.org/1999/xlink" xmlns:svgjs="http://svgjs.dev/svgjs" width="1500" height="1500" viewBox="0 0 1500 1500"><rect width="1500" height="1500" fill="#000000"></rect><g transform="matrix(0.6666666666666666,0,0,0.6666666666666666,249.78425655976667,249.78425655976673)"><svg viewBox="0 0 343 343" data-background-color="#97978d" preserveAspectRatio="xMidYMid meet" height="1500" width="1500" xmlns="http://www.w3.org/2000/svg" xmlns:xlink="http://www.w3.org/1999/xlink"><g id="tight-bounds" transform="matrix(1,0,0,1,0.0740000000000407,0.07400000000001228)"><svg viewBox="0 0 342.85155851775386 342.85155851775386" height="342.85155851775386" width="342.85155851775386"><g><svg></svg></g><g><svg viewBox="0 0 342.85155851775386 342.85155851775386" height="342.85155851775386" width="342.85155851775386"><g><path d="M0 171.426c0-94.676 76.75-171.426 171.426-171.426 94.676 0 171.426 76.75 171.426 171.426 0 94.676-76.75 171.426-171.426 171.426-94.676 0-171.426-76.75-171.426-171.426zM171.426 340.059c93.133 0 168.633-75.5 168.633-168.633 0-93.133-75.5-168.633-168.633-168.633-93.133 0-168.633 75.5-168.633 168.633 0 93.133 75.5 168.633 168.633 168.633z" data-fill-palette-color="tertiary" fill="#ffffff" stroke="transparent"></path><ellipse rx="164.56874808852186" ry="164.56874808852186" cx="171.42577925887693" cy="171.42577925887693" fill="#ffffff" stroke="transparent" stroke-width="0" fill-opacity="1" data-fill-palette-color="tertiary"></ellipse></g><g transform="matrix(1,0,0,1,64.84655864529837,109.48492327188222)"><svg viewBox="0 0 213.1584412271571 123.88171197398943" height="123.88171197398943" width="213.1584412271571"><g><svg viewBox="0 0 213.1584412271571 123.88171197398943" height="123.88171197398943" width="213.1584412271571"><g><svg viewBox="0 0 213.1584412271571 123.88171197398943" height="123.88171197398943" width="213.1584412271571"><g transform="matrix(1,0,0,1,0,92.91187240744384)"><svg viewBox="0 0 213.1584412271571 30.96983956654559" height="30.96983956654559" width="213.1584412271571"><g id="textblocktransform"><svg viewBox="0 0 213.1584412271571 30.96983956654559" height="30.96983956654559" width="213.1584412271571" id="textblock"><g><svg viewBox="0 0 213.1584412271571 30.96983956654559" height="30.96983956654559" width="213.1584412271571"><g transform="matrix(1,0,0,1,0,0)"><svg width="213.1584412271571" viewBox="2.6 -40.8 287.67999999999995 41.8" height="30.96983956654559" data-palette-color="#97978d"><path d="M34.45 0.9L34.45 0.9 33.15-3.2Q27.35 1 21.95 1L21.95 1Q17.05 1 13.4-0.78 9.75-2.55 7.35-5.48 4.95-8.4 3.78-12.13 2.6-15.85 2.6-19.75L2.6-19.75Q2.6-23.7 3.98-27.48 5.35-31.25 8.03-34.2 10.7-37.15 14.55-38.98 18.4-40.8 23.35-40.8L23.35-40.8Q30.25-40.8 36.05-37.8L36.05-37.8 36.05-28.2Q35.15-28.05 34.45-28.05L34.45-28.05Q33.7-28.05 33.2-28.2L33.2-28.2 31.6-36.55Q28.4-38.55 22.75-38.55L22.75-38.55Q19.6-38.55 17.05-37.13 14.5-35.7 12.65-33.27 10.8-30.85 9.8-27.58 8.8-24.3 8.8-20.6L8.8-20.6Q8.8-16.65 9.73-13.3 10.65-9.95 12.35-7.5 14.05-5.05 16.48-3.68 18.9-2.3 21.9-2.3L21.9-2.3Q26.75-2.3 31.45-4.95L31.45-4.95 31.45-15.6 27.4-16.1Q27.3-16.35 27.3-16.9L27.3-16.9Q27.3-17.15 27.3-17.4 27.3-17.65 27.4-17.95L27.4-17.95Q28.8-17.85 30.48-17.8 32.15-17.75 34.25-17.75L34.25-17.75Q37.9-17.75 41.15-17.9L41.15-17.9Q41.3-17.45 41.3-17L41.3-17Q41.3-16.55 41.15-16.1L41.15-16.1 37-15.5Q36.9-14.55 36.85-13.1 36.8-11.65 36.8-9.65L36.8-9.65 36.8-4.6 36.3 0.9Q36.1 1 35.9 1 35.7 1 35.45 1L35.45 1Q35.2 1 34.95 1 34.7 1 34.45 0.9ZM64.9-40.8L64.9-40.8Q69.8-40.8 73.7-39.05 77.6-37.3 80-34.38 82.4-31.45 83.67-27.88 84.95-24.3 84.95-20.4L84.95-20.4Q84.95-11.4 79.3-5.2 73.65 1 64.9 1L64.9 1Q60.05 1 56.15-0.75 52.25-2.5 49.85-5.43 47.45-8.35 46.17-11.9 44.9-15.45 44.9-19.3L44.9-19.3Q44.9-25.05 47.42-29.95 49.95-34.85 54.57-37.83 59.2-40.8 64.9-40.8ZM64.85-1.75L64.85-1.75Q69.55-1.75 72.82-4.48 76.1-7.2 77.52-11.35 78.95-15.5 78.95-20.6L78.95-20.6Q78.95-25.45 77.52-29.28 76.1-33.1 72.85-35.58 69.6-38.05 64.85-38.05L64.85-38.05Q58-38.05 54.45-33.05 50.9-28.05 50.9-20.55L50.9-20.55Q50.9-15.4 52.3-11.28 53.7-7.15 56.95-4.45 60.2-1.75 64.85-1.75ZM134.69-7.4L134.69-7.4Q135.54-6.85 135.99-5.5L135.99-5.5Q129.04 1 121.89 1L121.89 1Q116.99 1 113.34-0.78 109.69-2.55 107.29-5.48 104.89-8.4 103.72-12.13 102.54-15.85 102.54-19.75L102.54-19.75Q102.54-23.7 103.89-27.48 105.24-31.25 107.84-34.23 110.44-37.2 114.27-39 118.09-40.8 122.99-40.8L122.99-40.8Q129.44-40.8 134.99-37.8L134.99-37.8 134.99-28.2Q134.09-28.05 133.39-28.05L133.39-28.05Q132.64-28.05 132.14-28.2L132.14-28.2 130.54-36.55Q127.49-38.55 122.39-38.55L122.39-38.55Q119.24-38.55 116.72-37.13 114.19-35.7 112.42-33.27 110.64-30.85 109.69-27.58 108.74-24.3 108.74-20.6L108.74-20.6Q108.74-16.65 109.67-13.3 110.59-9.95 112.29-7.5 113.99-5.05 116.42-3.68 118.84-2.3 121.84-2.3L121.84-2.3Q125.44-2.3 128.79-3.7 132.14-5.1 134.69-7.4ZM143.04-8.7L143.04-32.45Q143.04-35.75 142.89-37.35L142.89-37.35 138.94-37.85Q138.74-38.6 138.94-39.75L138.94-39.75Q142.29-40 147.49-40.8L147.49-40.8Q147.94-40.3 147.99-39.8L147.99-39.8Q147.74-38.5 147.74-31.7L147.74-31.7 147.74-22.25Q151.44-27.35 156.64-27.35L156.64-27.35Q159.74-27.35 161.94-25.8 164.14-24.25 164.14-20.5L164.14-20.5 164.14-2.55 168.19-1.8Q168.39-1 168.19 0.2L168.19 0.2Q165.04 0.05 161.79 0.05L161.79 0.05Q159.49 0.05 155.29 0.15L155.29 0.15Q154.99-0.8 155.29-1.8L155.29-1.8 159.24-2.35Q159.44-5.1 159.44-8.7L159.44-8.7 159.44-18Q159.44-21.5 158.57-23.05 157.69-24.6 155.39-24.6L155.39-24.6Q153.49-24.6 151.42-23.2 149.34-21.8 147.74-19.15L147.74-19.15 147.74-2.55 151.79-1.8Q151.99-1 151.79 0.2L151.79 0.2Q148.64 0.05 145.39 0.05L145.39 0.05Q143.09 0.05 138.89 0.15L138.89 0.15Q138.59-0.8 138.89-1.8L138.89-1.8 142.84-2.35Q143.04-5.1 143.04-8.7L143.04-8.7ZM175.74-6.65L175.74-6.65Q175.74-4.05 176.69-2.98 177.64-1.9 179.69-1.9L179.69-1.9Q181.19-1.9 183.01-2.83 184.84-3.75 186.39-5.5L186.39-5.5 186.39-13.3Q181.24-13 178.49-11.48 175.74-9.95 175.74-6.65ZM186.39-15.1L186.39-15.1 186.39-17.65Q186.39-21.9 185.41-23.83 184.44-25.75 182.19-25.75L182.19-25.75Q179.89-25.75 178.49-24.28 177.09-22.8 176.59-19.25L176.59-19.25Q174.99-18.9 174.24-18.9L174.24-18.9Q172.29-18.9 171.94-20.3L171.94-20.3Q171.94-23.7 174.89-25.7 177.84-27.7 182.24-27.7L182.24-27.7Q187.09-27.7 189.11-25.73 191.14-23.75 191.14-18.65L191.14-18.65 191.14-4.55Q191.14-3.3 191.29-2.4L191.29-2.4 195.24-1.9Q195.44-1.15 195.24 0L195.24 0Q191.69 0.15 187.69 0.7L187.69 0.7Q187.29 0.3 187.19-0.3L187.19-0.3 186.94-3.75Q182.79 1 177.69 1L177.69 1Q174.54 1 172.76-0.8 170.99-2.6 170.99-5.65L170.99-5.65Q170.99-10.25 175.16-12.6 179.34-14.95 186.39-15.1ZM205.19-32.7L205.19-32.7 205.19-25.55 212.24-25.55Q212.34-24.95 212.34-24.65L212.34-24.65Q212.34-24.2 212.24-23.6L212.24-23.6 205.19-22.55 205.19-8.8Q205.19-5.1 205.86-3.58 206.54-2.05 207.99-2.05L207.99-2.05Q209.29-2.05 212.04-3.1L212.04-3.1Q212.54-2.65 212.74-1.4L212.74-1.4Q211.24-0.5 210.46-0.08 209.69 0.35 208.51 0.68 207.34 1 206.04 1L206.04 1Q203.54 1 201.96-0.93 200.39-2.85 200.39-6.8L200.39-6.8 200.39-23.15 196.89-23.6Q196.79-24.1 196.79-24.45L196.79-24.45Q196.79-24.85 196.89-25.55L196.89-25.55Q198.29-25.8 199.31-26.43 200.34-27.05 201.04-28.18 201.74-29.3 202.11-30.18 202.49-31.05 203.04-32.7L203.04-32.7Q203.49-32.85 204.14-32.85L204.14-32.85Q204.74-32.85 205.19-32.7ZM222.08-31.7L222.08-23.55Q226.23-27.7 231.13-27.7L231.13-27.7Q235.98-27.7 238.71-24.05 241.43-20.4 241.43-14.2L241.43-14.2Q241.43-7.15 237.63-3.08 233.83 1 228.18 1L228.18 1Q223.28 1 220.48-2.5L220.48-2.5 219.43 0.9Q218.48 1.05 217.83 0.9L217.83 0.9 217.33-4.6 217.33-37.35 213.23-37.85Q213.03-38.6 213.23-39.75L213.23-39.75Q216.68-40 221.83-40.8L221.83-40.8Q222.28-40.3 222.33-39.8L222.33-39.8Q222.08-38.5 222.08-31.7L222.08-31.7ZM229.28-1.75L229.28-1.75Q232.38-1.75 234.41-4.63 236.43-7.5 236.43-12.75L236.43-12.75Q236.43-13.8 236.38-14.35L236.38-14.35Q236.38-19.3 234.41-22 232.43-24.7 229.43-24.7L229.43-24.7Q227.68-24.7 225.63-23.58 223.58-22.45 222.08-20.5L222.08-20.5 222.08-5.2Q223.78-3.25 225.33-2.5 226.88-1.75 229.28-1.75ZM245.78-13.3L245.78-13.3Q245.78-16.3 246.66-18.93 247.53-21.55 249.18-23.5 250.83-25.45 253.16-26.58 255.48-27.7 258.38-27.7L258.38-27.7Q261.23-27.7 263.58-26.58 265.93-25.45 267.61-23.5 269.28-21.55 270.18-18.93 271.08-16.3 271.08-13.3L271.08-13.3Q271.08-10.2 270.16-7.6 269.23-5 267.56-3.08 265.88-1.15 263.53-0.08 261.18 1 258.38 1L258.38 1Q255.43 1 253.11-0.05 250.78-1.1 249.16-3 247.53-4.9 246.66-7.53 245.78-10.15 245.78-13.3ZM253.08-22.5L253.08-22.5Q250.93-19.45 250.93-13.3L250.93-13.3Q250.93-10.25 251.51-7.95 252.08-5.65 253.08-4.13 254.08-2.6 255.43-1.85 256.78-1.1 258.38-1.1L258.38-1.1Q259.93-1.1 261.33-1.85 262.73-2.6 263.73-4.13 264.73-5.65 265.33-7.95 265.93-10.25 265.93-13.3L265.93-13.3Q265.93-16.35 265.33-18.68 264.73-21 263.71-22.53 262.68-24.05 261.31-24.83 259.93-25.6 258.38-25.6L258.38-25.6Q255.28-25.6 253.08-22.5ZM282.73-32.7L282.73-32.7 282.73-25.55 289.78-25.55Q289.88-24.95 289.88-24.65L289.88-24.65Q289.88-24.2 289.78-23.6L289.78-23.6 282.73-22.55 282.73-8.8Q282.73-5.1 283.4-3.58 284.08-2.05 285.53-2.05L285.53-2.05Q286.83-2.05 289.58-3.1L289.58-3.1Q290.08-2.65 290.28-1.4L290.28-1.4Q288.78-0.5 288-0.08 287.23 0.35 286.05 0.68 284.88 1 283.58 1L283.58 1Q281.08 1 279.5-0.93 277.93-2.85 277.93-6.8L277.93-6.8 277.93-23.15 274.43-23.6Q274.33-24.1 274.33-24.45L274.33-24.45Q274.33-24.85 274.43-25.55L274.43-25.55Q275.83-25.8 276.85-26.43 277.88-27.05 278.58-28.18 279.28-29.3 279.65-30.18 280.03-31.05 280.58-32.7L280.58-32.7Q281.03-32.85 281.68-32.85L281.68-32.85Q282.28-32.85 282.73-32.7Z" opacity="1" transform="matrix(1,0,0,1,0,0)" fill="#000000" class="wordmark-text-0" data-fill-palette-color="quaternary" id="text-0"></path></svg></g></svg></g></svg></g></svg></g><g transform="matrix(1,0,0,1,64.00777084086602,0)"><svg viewBox="0 0 85.14289954542507 85.60063656193202" height="85.60063656193202" width="85.14289954542507"><g><svg xmlns="http://www.w3.org/2000/svg" xmlns:xlink="http://www.w3.org/1999/xlink" version="1.1" x="0" y="0" viewBox="5.3580000000000005 5.118 89.28399999999999 89.76400000000002" enable-background="new 0 0 100 100" xml:space="preserve" height="85.60063656193202" width="85.14289954542507" class="icon-icon-0" data-fill-palette-color="quaternary" id="icon-0"><path fill="#000000" d="M86.435 59.767v-1.063c4.554-0.169 8.207-3.916 8.207-8.509s-3.653-8.339-8.207-8.508v-2.039c4.146-0.409 7.396-3.914 7.396-8.166 0-4.251-3.25-7.757-7.396-8.166V13.256H75.926c-0.202-4.345-3.793-7.82-8.187-7.82-4.395 0-7.982 3.476-8.188 7.82H40.693c-0.204-4.52-3.935-8.138-8.503-8.138-4.571 0-8.301 3.618-8.506 8.138H13.502v9.722c-4.523 0.201-8.144 3.934-8.144 8.505s3.62 8.305 8.144 8.505v2.031c-4.251 0.304-7.618 3.851-7.618 8.177 0 4.419 3.512 8.022 7.89 8.191v19.452c-4.649 0.059-8.415 3.855-8.415 8.519 0 4.7 3.823 8.524 8.524 8.524 4.7 0 8.523-3.824 8.523-8.524 0-4.522-3.544-8.224-7.998-8.498v-9.585h9.275c0.165 4.272 3.602 7.709 7.874 7.874v2.018c-4.378 0.169-7.891 3.773-7.891 8.191 0 4.525 3.682 8.207 8.207 8.207 4.418 0 8.022-3.512 8.191-7.89h19.207c0.475 4.253 4.088 7.572 8.467 7.572 4.377 0 7.992-3.319 8.467-7.572h10.229V76.148c4.377-0.169 7.891-3.773 7.891-8.191S90.812 59.936 86.435 59.767zM77.927 67.641h-1.68c-0.165-4.447-3.745-8.026-8.19-8.191v-0.731c4.577-0.019 8.304-3.664 8.473-8.205h1.08c0.166 4.447 3.744 8.026 8.191 8.191v1.063C81.528 59.932 78.092 63.368 77.927 67.641zM58.802 67.641c-0.164-4.447-3.744-8.026-8.189-8.191v-1.063c4.271-0.165 7.708-3.602 7.873-7.874h1.028c0.16 4.353 3.593 7.874 7.908 8.177v0.76c-4.447 0.165-8.026 3.744-8.19 8.191H58.802zM32.191 78.166v-2.018c4.271-0.165 7.709-3.602 7.874-7.874h1.722c0.164 4.447 3.743 8.026 8.19 8.191v9.574h-9.912C39.9 81.769 36.463 78.331 32.191 78.166zM23.999 49.878h-1.718c-0.168-4.361-3.747-7.862-8.145-7.887v-1.998c4.476-0.133 8.087-3.726 8.254-8.193h1.291c0.161 4.341 3.576 7.857 7.876 8.175v2.047C27.433 42.338 24.158 45.712 23.999 49.878zM67.422 21.833v1.458c-4.272 0.166-7.709 3.603-7.874 7.874h-0.746c-0.164-4.446-3.744-8.025-8.189-8.19v-9.084h8.932C59.674 18.194 63.127 21.668 67.422 21.833zM58.485 49.878c-0.165-4.271-3.602-7.708-7.873-7.873V39.99c4.445-0.164 8.025-3.744 8.189-8.19h0.746c0.165 4.271 3.602 7.709 7.874 7.873v2.029c-4.315 0.303-7.748 3.824-7.908 8.176H58.485zM50.294 57.134c-3.826 0-6.938-3.112-6.938-6.938 0-3.825 3.111-6.938 6.938-6.938s6.938 3.113 6.938 6.938C57.232 54.021 54.12 57.134 50.294 57.134zM42.114 49.648h-1.746c-0.284-4.27-3.838-7.658-8.177-7.659v-1.983c4.593-0.001 8.337-3.654 8.506-8.206h1.09c0.164 4.446 3.743 8.026 8.19 8.19v2.015C45.784 42.167 42.392 45.484 42.114 49.648zM67.739 38.421c-3.826 0-6.938-3.112-6.938-6.938s3.112-6.938 6.938-6.938 6.938 3.112 6.938 6.938S71.565 38.421 67.739 38.421zM49.978 22.975c-4.447 0.165-8.026 3.744-8.19 8.19h-1.09c-0.169-4.552-3.913-8.205-8.506-8.206v-0.792c4.615-0.001 8.378-3.692 8.51-8.276h9.276V22.975zM32.19 43.257c3.825 0 6.938 3.113 6.938 6.938 0 3.826-3.112 6.938-6.938 6.938-3.826 0-6.939-3.112-6.939-6.938C25.251 46.37 28.364 43.257 32.19 43.257zM32.191 58.402c4.495-0.001 8.153-3.636 8.2-8.12h1.7c0.047 4.379 3.537 7.937 7.886 8.104v1.063c-4.447 0.165-8.026 3.744-8.19 8.191h-1.722c-0.165-4.272-3.603-7.709-7.874-7.874V58.402zM85.801 41.688c-4.447 0.165-8.025 3.744-8.191 8.19h-1.08c-0.169-4.54-3.896-8.187-8.473-8.204v-2.001c4.271-0.164 7.708-3.602 7.873-7.873h1.504c0.169 4.378 3.773 7.889 8.19 7.889 0.06 0 0.117-0.007 0.177-0.008V41.688zM92.562 31.482c0 3.826-3.111 6.938-6.938 6.938s-6.938-3.112-6.938-6.938 3.111-6.938 6.938-6.938S92.562 27.656 92.562 31.482zM85.801 23.284c-0.06-0.001-0.117-0.009-0.177-0.009-4.417 0-8.021 3.513-8.19 7.89H75.93c-0.165-4.271-3.602-7.708-7.873-7.874v-1.458c4.295-0.165 7.747-3.639 7.876-7.942h9.868V23.284zM67.739 6.705c3.826 0 6.938 3.111 6.938 6.938s-3.112 6.938-6.938 6.938-6.938-3.112-6.938-6.938S63.913 6.705 67.739 6.705zM23.678 13.891c0.126 4.373 3.557 7.925 7.88 8.243v0.856c-4.3 0.317-7.715 3.834-7.876 8.175h-1.291c-0.167-4.468-3.778-8.061-8.254-8.193v-9.081H23.678zM7.152 50.195c0-3.825 3.112-6.938 6.938-6.938s6.938 3.113 6.938 6.938c0 3.826-3.112 6.938-6.938 6.938S7.152 54.021 7.152 50.195zM14.408 58.387c4.271-0.165 7.709-3.602 7.873-7.874h1.718c0.159 4.167 3.434 7.541 7.559 7.857v1.396c-4.272 0.165-7.709 3.602-7.874 7.874h-9.275V58.387zM24.937 67.957c0-3.825 3.111-6.938 6.938-6.938s6.938 3.113 6.938 6.938c0 3.826-3.112 6.938-6.938 6.938S24.937 71.783 24.937 67.957zM31.874 93.296c-3.826 0-6.938-3.112-6.938-6.938s3.111-6.938 6.938-6.938 6.938 3.112 6.938 6.938S35.7 93.296 31.874 93.296zM50.612 86.04v-9.574c4.445-0.165 8.025-3.744 8.189-8.191h0.43c0.164 4.447 3.743 8.026 8.19 8.191v0.75c-4.554 0.167-8.206 3.914-8.206 8.507 0 0.107 0.012 0.212 0.016 0.317H50.612zM76.247 86.04c0.004-0.105 0.016-0.21 0.016-0.317 0-4.593-3.653-8.34-8.206-8.507v-0.75c4.445-0.165 8.025-3.744 8.19-8.191h1.68c0.165 4.272 3.602 7.709 7.874 7.874v9.892H76.247zM86.117 74.896c-3.825 0-6.938-3.112-6.938-6.938 0-3.825 3.112-6.938 6.938-6.938 3.826 0 6.938 3.113 6.938 6.938C93.056 71.783 89.943 74.896 86.117 74.896z" data-fill-palette-color="quaternary"></path></svg></g></svg></g><g></g></svg></g></svg></g></svg></g></svg></g><defs></defs></svg><rect width="342.85155851775386" height="342.85155851775386" fill="none" stroke="none" visibility="hidden"></rect></g></svg></g></svg>