<svg fill="none" viewBox="17 47.75 216 100.98" xmlns="http://www.w3.org/2000/svg"><path clip-rule="evenodd" d="m63 134h91c.515 0 1.017-.056 1.5-.161.483.105.985.161 1.5.161h52c3.866 0 7-3.134 7-7s-3.134-7-7-7h-6c-3.866 0-7-3.134-7-7s3.134-7 7-7h19c3.866 0 7-3.134 7-7s-3.134-7-7-7h-22c3.866 0 7-3.134 7-7s-3.134-7-7-7h-64c3.866 0 7-3.134 7-7s-3.134-7-7-7h-57c-3.866 0-7 3.134-7 7s3.134 7 7 7h-40c-3.866 0-7 3.134-7 7s3.134 7 7 7h25c3.866 0 7 3.134 7 7s-3.134 7-7 7h-40c-3.866 0-7 3.134-7 7s3.134 7 7 7h39c-3.866 0-7 3.134-7 7s3.134 7 7 7zm163 0c3.866 0 7-3.134 7-7s-3.134-7-7-7-7 3.134-7 7 3.134 7 7 7z" fill="#ccdcf9" fill-rule="evenodd"/><path clip-rule="evenodd" d="m168.577 126.075c-2.577 1.925-5.089 3.735-7.933 5.299l.165 14.083c.013 1.105-.872 2.01-1.977 2.023-.449.006-.887-.141-1.243-.414l-12.663-9.743c-4.746 1.093-9.753 1.677-14.926 1.677-30.3757 0-55-20.147-55-45 0-24.8528 24.6243-45 55-45 30.376 0 55 20.1472 55 45 0 6.879-1.886 13.397-5.259 19.227-.622 1.076-1.295 2.128-2.015 3.154 0 0-1.409 2.119-4.226 5.119s-4.923 4.575-4.923 4.575z" fill="#fff" fill-rule="evenodd"/><path d="m168.577 126.075.748 1.001zm-7.933 5.299-.602-1.096-.657.361.009.749zm.165 14.083 1.25-.015zm-1.977 2.023.014 1.25h.001zm-1.243-.414-.762.99zm-12.663-9.743.763-.991-.468-.359-.575.132zm34.815-24.096 1.082.626zm-2.015 3.154-1.023-.718-.009.013-.009.013zm-9.897 8.692c-2.571 1.921-5.025 3.686-7.787 5.205l1.204 2.191c2.925-1.609 5.496-3.463 8.079-5.393zm-8.435 6.315.165 14.084 2.5-.03-.165-14.083zm.165 14.084c.005.414-.327.754-.742.758l.03 2.5c1.795-.021 3.233-1.493 3.212-3.288zm-.741.758c-.169.002-.333-.052-.467-.155l-1.524 1.981c.578.445 1.29.683 2.019.674zm-.467-.155-12.662-9.743-1.525 1.982 12.663 9.742zm-13.705-9.97c-4.654 1.071-9.567 1.645-14.646 1.645v2.5c5.267 0 10.368-.595 15.207-1.709zm-14.646 1.645c-29.932 0-53.75-19.81-53.75-43.75h-2.5c0 25.766 25.4302 46.25 56.25 46.25zm-53.75-43.75c0-23.9396 23.818-43.75 53.75-43.75v-2.5c-30.8198 0-56.25 20.484-56.25 46.25zm53.75-43.75c29.932 0 53.75 19.8104 53.75 43.75h2.5c0-25.766-25.43-46.25-56.25-46.25zm53.75 43.75c0 6.645-1.821 12.948-5.091 18.601l2.164 1.252c3.475-6.007 5.427-12.74 5.427-19.853zm-5.091 18.601c-.603 1.044-1.256 2.065-1.956 3.062l2.046 1.436c.741-1.056 1.433-2.138 2.074-3.246zm-.933 3.78c-1.041-.692-1.041-.692-1.041-.692 0-.001 0-.001 0-.001 0 .001 0 .001-.001.003-.002.002-.005.007-.01.014-.009.013-.023.034-.043.063-.04.058-.102.146-.185.263-.167.232-.421.578-.763 1.017-.683.877-1.715 2.127-3.094 3.596l1.822 1.712c1.438-1.531 2.519-2.841 3.245-3.773.362-.466.636-.837.822-1.096.092-.129.162-.229.211-.299.024-.035.042-.062.055-.082.007-.009.012-.017.016-.022.002-.003.003-.005.004-.007.001-.001.001-.002.002-.003s.001-.001.001-.001 0 0-1.041-.692zm-5.137 4.263c-1.377 1.467-2.578 2.582-3.43 3.328-.426.372-.764.652-.993.836-.115.093-.202.161-.259.205-.029.023-.05.039-.063.049-.007.005-.011.008-.014.01-.001.001-.002.002-.002.002-.001 0-.001 0 0 0s0 0 .749 1.001c.748 1.001.748 1.001.749 1.001v-.001h.001c0-.001.001-.001.002-.002.002-.001.004-.003.007-.005.005-.004.013-.01.022-.017.019-.015.046-.035.081-.062.069-.053.168-.131.295-.234.254-.204.618-.506 1.071-.902.905-.792 2.166-1.964 3.606-3.497z" fill="#1f64e7"/><path clip-rule="evenodd" d="m162.853 81.5895c5.304 0 10.413-.6325 15.198-1.8027 1.91 4.3496 2.949 9.0364 2.949 13.9206 0 6.3356-1.749 12.3396-4.877 17.7096-.576.991-1.2 1.959-1.868 2.905-1.055 1.493-1.807 2.547-2.47 3.392-1.566 1.999-2.63 2.83-6.014 5.536-2.256 1.805-4.719 3.441-7.356 4.881l.153 12.972c.012 1.017.321 2.885-.703 2.897-.416.005-1.952-1.163-2.282-1.416l-10.21-9.117c-4.401 1.006-10.576 1.689-15.373 1.689-28.167 0-51-18.557-51-41.4486 0-18.7464 15.3133-34.5859 36.328-39.7074 5.504 15.8745 24.695 27.5895 47.525 27.5895zm-52.562 6.5588c-3.305 0-5.984 2.6965-5.984 6.0228s2.679 6.0229 5.984 6.0229 5.984-2.6966 5.984-6.0229-2.679-6.0228-5.984-6.0228zm18.95 0c-3.305 0-5.984 2.6965-5.984 6.0228s2.679 6.0229 5.984 6.0229 5.984-2.6966 5.984-6.0229-2.679-6.0228-5.984-6.0228zm18.95 0c-3.305 0-5.984 2.6965-5.984 6.0228s2.679 6.0229 5.984 6.0229 5.985-2.6966 5.985-6.0229-2.68-6.0228-5.985-6.0228z" fill="#e8f0fe" fill-rule="evenodd"/><g stroke-width="2.5"><path clip-rule="evenodd" d="m110 88c3.314 0 6 2.6863 6 6s-2.686 6-6 6-6-2.6863-6-6 2.686-6 6-6zm19 0c3.314 0 6 2.6863 6 6s-2.686 6-6 6-6-2.6863-6-6 2.686-6 6-6zm19 0c3.314 0 6 2.6863 6 6s-2.686 6-6 6-6-2.6863-6-6 2.686-6 6-6z" fill="#fff" fill-rule="evenodd" stroke="#1f64e7"/><path d="m89.6621 79.3112c-.908 1.5319-1.6949 3.1217-2.3503 4.761" stroke="#75a4fe" stroke-linecap="round"/><path d="m108.022 63.0732c-6.553 3.1274-12.085 7.5512-16.0828 12.8471" stroke="#75a4fe" stroke-linecap="round"/></g></svg>